<svg xmlns="http://www.w3.org/2000/svg" version="1.1" xmlns:xlink="http://www.w3.org/1999/xlink" width="512" height="512" x="0" y="0" viewBox="0 0 511.312 511.312" style="enable-background:new 0 0 512 512" xml:space="preserve" class=""><g><path d="M484.989 363.387c-.853-.619-84.992-63.808-179.072-157.867C232.979 132.56 148.563 27.109 146.92 25.168c-33.536-33.557-88.171-33.557-121.749 0-33.558 33.579-33.558 88.192 1.13 122.731.832.64 84.736 64.32 178.837 158.4 72.96 72.96 157.653 177.941 159.253 179.84 16.789 16.789 38.827 25.173 60.885 25.173 22.059 0 44.075-8.384 60.885-25.173 33.538-33.579 33.538-88.192-1.172-122.752zM211.475 165.136c-2.859 9.088-9.515 19.328-18.261 28.075-8.747 8.747-18.987 15.424-28.075 18.261-6.592 2.048-12.032 1.984-14.229-.235-2.176-2.176-2.261-7.744-.213-14.208 2.859-9.088 9.515-19.328 18.261-28.075s18.987-15.424 28.075-18.261c3.115-.981 6.016-1.472 8.427-1.472 2.603 0 4.651.576 5.781 1.707 2.218 2.219 2.282 7.659.234 14.208zm149.418 149.44c-2.859 9.088-9.515 19.328-18.261 28.075-8.747 8.747-19.008 15.424-28.075 18.261-6.464 2.048-12.053 1.92-14.208-.235-2.176-2.176-2.283-7.744-.235-14.208 2.859-9.088 9.515-19.328 18.261-28.075 8.747-8.747 19.008-15.424 28.075-18.261 3.115-.981 5.995-1.451 8.427-1.451 2.603 0 4.672.555 5.781 1.685 2.177 2.177 2.262 7.745.235 14.209z" fill="#2fa8cf" opacity="1" data-original="#000000"></path></g></svg>