<svg xmlns="http://www.w3.org/2000/svg" version="1.1" xmlns:xlink="http://www.w3.org/1999/xlink" width="512" height="512" x="0" y="0" viewBox="0 0 512 512" style="enable-background:new 0 0 512 512" xml:space="preserve" class=""><g><path fill="#acd0d4" d="M133.207 54.203c-34.34 21.625-59.852 55.613-89.07 66.117V88.277c0-1.324.09-2.562.18-3.797.085-.972.175-1.855.261-2.738.281-1.902.664-3.789 1.149-5.648-.09 0-.09-.09-.176-.09a35.52 35.52 0 0 1 16.242-23.04s35.309-26.48 70.621 0zm0 0" opacity="1" data-original="#c2acd4" class=""></path><path fill="#43575f" d="M512 450.207C512 494.344 459.035 512 388.414 512H61.793C26.484 512 0 494.344 0 450.207a421.232 421.232 0 0 1 10.77-86.598l1.324-6.093c.344-1.586.742-3.16 1.094-4.739.175-.882.414-1.765.582-2.648.707-3.18 1.503-6.27 2.207-9.445.09-.532.265-.973.355-1.5a2453.66 2453.66 0 0 1 2.91-12.094c.973-3.973 2.031-8.035 3.004-12.094.969-4.062 2.031-7.945 3-11.918.442-1.5.797-3.09 1.149-4.68 1.234-5.207 2.558-10.328 3.796-15.449.266-1.144.528-2.207.793-3.265 1.676-6.883 3.266-13.684 4.68-20.391 2.649-12.184 4.856-23.922 6.266-35.313.441-3.085.797-6.175 1.148-9.18.356-3.882.617-7.679.797-11.386.176-3.09.262-6.18.262-9.18V120.32c29.218-10.504 54.73-44.492 89.07-66.117l-.793-1.238c-35.312-26.48-70.621 0-70.621 0C61.793 17.656 70.621 0 97.102 0c26.484 0 26.484 8.828 52.968 8.828C176.55 8.828 185.38 0 220.691 0 256 0 308.965 8.828 308.965 52.965s-26.48 70.62-26.48 185.379 176.55 141.242 203.03 150.07C512 397.242 512 414.898 512 450.207zm0 0" opacity="1" data-original="#4e435f" class=""></path><path fill="#acd0d4" d="M361.93 459.035C317.793 459.035 335.45 512 256 512h132.414C459.035 512 512 494.344 512 450.207v-4.336a719.408 719.408 0 0 1-150.07 13.164zm0 0" opacity="1" data-original="#c2acd4" class=""></path><path fill="#395b63" d="M61.793 512H256c48.71 0 60.91-19.906 73.27-35.309H141.242A289.994 289.994 0 0 1 .203 443.426C.148 445.688 0 447.965 0 450.207 0 494.344 26.484 512 61.793 512zm0 0" opacity="1" data-original="#394f63" class=""></path><path fill="#63a2ad" d="M61.793 370.758a187.615 187.615 0 0 0-48.059-20.7A456.298 456.298 0 0 0 0 450.208c0-2.242.148-4.52.203-6.781a282.304 282.304 0 0 0 124.469 32.75c-22.387-52.238-39.043-89.528-62.879-105.418zm0 0" opacity="1" data-original="#9c63ad" class=""></path><path fill="#2fa8cf" d="M485.516 388.414c-14.918-4.969-77.477-15.555-129.25-44.367 1.234 20.469 1.437 43.996-3.164 53.195-12.48 24.965-61.793 44.137-79.446 79.45h55.614a37.724 37.724 0 0 1 32.66-17.657A719.408 719.408 0 0 0 512 445.871c-.055-32.406-1.121-49-26.484-57.457zM273.656 79.45c0 44.136-26.484 132.413-26.484 176.55 0 38.137-105.223 109.11-162.426 139.121a87.665 87.665 0 0 0-22.953-24.363 184.958 184.958 0 0 0-48.023-20.656c.707-3.176 1.503-6.266 2.207-9.446.09-.531.265-.972.355-1.5a2453.66 2453.66 0 0 1 2.91-12.094c.973-3.972 2.031-8.035 3.004-12.093.969-4.063 2.031-7.946 3-11.918.442-1.5.797-3.09 1.149-4.68 1.324-5.207 2.558-10.328 3.796-15.445.266-1.149.528-2.207.793-3.27 1.676-6.883 3.266-13.68 4.68-20.39 2.648-12.18 4.856-23.922 6.266-35.309.441-3.09.797-6.094 1.148-9.184.356-3.882.617-7.68.797-11.386.176-3.09.262-6.18.262-9.18V120.32c29.218-10.504 54.73-44.492 89.07-66.117a111.885 111.885 0 0 1 61-18.894c79.45 0 79.45 26.484 79.45 44.14zm0 0" opacity="1" data-original="#a773b4" class=""></path><path fill="#acd0d4" d="M185.379 158.898c0 19.5-15.809 35.309-35.309 35.309-19.504 0-35.312-15.809-35.312-35.309 0-19.503 15.808-35.312 35.312-35.312 19.5 0 35.309 15.809 35.309 35.312zm0 0" opacity="1" data-original="#c2acd4" class=""></path><path fill="#43575f" d="M158.898 158.898c0 4.875-3.953 8.825-8.828 8.825s-8.828-3.95-8.828-8.825c0-4.878 3.953-8.828 8.828-8.828s8.828 3.95 8.828 8.828zM45.727 76.094a53.381 53.381 0 0 0-1.149 5.648c-.18.903-.266 1.82-.262 2.738-.09 1.235-.18 2.473-.18 3.797v46.168A101.277 101.277 0 0 1 8.829 105.93C-.09 92.602 4.504 83.773 11.211 78.21a29.738 29.738 0 0 1 33.723-2.647c.175.18.441.265.617.44.086 0 .086.09.176.09zm0 0" opacity="1" data-original="#4e435f" class=""></path><g fill="#c2acd4"><path d="M282.484 326.621a8.828 8.828 0 0 1-4.91-16.172c7.059-4.418 13.54-9.699 19.29-15.722 3.238-3.645 8.82-3.973 12.464-.735a8.827 8.827 0 0 1 .73 12.465 119.525 119.525 0 0 1-22.683 18.68 8.834 8.834 0 0 1-4.89 1.484zM264.828 290.656a8.83 8.83 0 0 1-8.789-8.18 8.834 8.834 0 0 1 7.5-9.378 57.766 57.766 0 0 0 20.566-7.38 8.84 8.84 0 0 1 8.977-.214 8.83 8.83 0 0 1-.086 15.46 74.97 74.97 0 0 1-26.863 9.595c-.43.062-.867.097-1.305.097zM229.516 256c-4.875 0-8.825-3.953-8.825-8.828s3.95-8.828 8.825-8.828a193.433 193.433 0 0 0 50.664-5.473 8.833 8.833 0 0 1 10.863 6.168c1.297 4.7-1.465 9.563-6.168 10.86a211.232 211.232 0 0 1-55.36 6.101zM229.516 220.691c-4.875 0-8.825-3.953-8.825-8.828s3.95-8.828 8.825-8.828c17.398-.039 34.73-2.16 51.625-6.312a8.829 8.829 0 0 1 10.648 6.433c1.176 4.703-1.66 9.48-6.36 10.692a236.598 236.598 0 0 1-55.913 6.843zM238.344 185.379a8.829 8.829 0 0 1 0-17.656 211.863 211.863 0 0 0 45.746-4.246 8.825 8.825 0 0 1 8.594 2.53 8.826 8.826 0 0 1-4.738 14.691 230.382 230.382 0 0 1-49.602 4.68zM292.766 140.613h-.582c-35-2.277-58.184-8.828-68.907-19.597-3.347-3.461-3.297-8.97.106-12.371a8.828 8.828 0 0 1 12.375-.11c7.176 7.176 28.699 12.578 57.574 14.461 4.875.156 8.7 4.234 8.547 9.11-.156 4.874-4.238 8.699-9.113 8.542zm0 0" fill="#acd0d4" opacity="1" data-original="#c2acd4" class=""></path></g></g></svg>