<svg xmlns="http://www.w3.org/2000/svg" version="1.1" xmlns:xlink="http://www.w3.org/1999/xlink" width="512" height="512" x="0" y="0" viewBox="0 0 512 512" style="enable-background:new 0 0 512 512" xml:space="preserve" class=""><g><path fill="#00c6f7" d="M509.52 114.758S509.695 79.449 412.414 0l-.262.414.262-.414s-28.793 7.316-53.848 47.73l1.344.54a282.54 282.54 0 0 0-27.18-8.918c-1.113-.297-2.296-.555-3.425-.883a300.901 300.901 0 0 0-7.77-1.942 364.59 364.59 0 0 0-4.465-1.004 330.99 330.99 0 0 0-9.914-2.023l-2.648-.512c-9.25-1.675-19-3.043-29.246-4.093-.23 0-.442-.055-.672-.082a472.636 472.636 0 0 0-47.555-2.329 373.253 373.253 0 0 0-79.555 7.758l-.464.113a227.808 227.808 0 0 0-43.098 13.782l-.293.113c-71.66 31.781-86.648 91.5-88.96 132.496C5.476 182.29-.907 190.73.104 199.988l4.766 42.77a17.657 17.657 0 0 0 14.649 15.465l5.894.98a231.145 231.145 0 0 1 15.094 51.29 27.007 27.007 0 0 0 17.57 22.155 345.735 345.735 0 0 0 94.902 20.012c32.23 32.903 112.043 101.324 153.68 115.203a225.464 225.464 0 0 1 7.426 29.676c1.5 8.402 8.828 14.508 17.363 14.461h2.426a17.58 17.58 0 0 0 12.906-5.516 17.58 17.58 0 0 0 4.75-13.207 70.276 70.276 0 0 0-22.402-47.863l4.016-4.035-.426-.281.426.28c16.277-38.726 8.906-121.96 3.125-164.667-1.301.602-2.641 1.113-4.008 1.535a35.187 35.187 0 0 0 23.48-20.215 97.98 97.98 0 0 1 65.5-54.996l45.727-13.066a17.636 17.636 0 0 0 10.691-8.59 17.667 17.667 0 0 0 1.317-13.656c-.973-3-2.032-6.266-3.446-9.797h-.148c20.746-3.54 35.476-22.164 34.137-43.168zm-7.063 1.66.441-.09zm-42.496 1.387-36.918 20.629zm-37.73-20.516c.953.813 1.925 1.688 2.87 2.453-.972-.765-1.917-1.64-2.894-2.453zm7.242 5.773c.554.415 1.129.883 1.683 1.282-.582-.399-1.156-.867-1.71-1.281zm6.68 4.583c.308.19.617.414.882.597-.289-.183-.61-.406-.91-.597zm6.257 3.601.469.254zm6.067 2.852.125.05zm-29.61-19.696a170.03 170.03 0 0 1-6.453-6.125 54.026 54.026 0 0 1-5.621-6.578 55.705 55.705 0 0 0 5.621 6.578 176.12 176.12 0 0 0 6.43 6.125zm-19.11-26.261c.063.175.15.343.212.52-.063-.177-.149-.345-.211-.52zm2.895 6.832c.399.75.883 1.484 1.352 2.222-.426-.738-.965-1.472-1.352-2.222zm8.739-73.32.398-.673zm-14.23 54.402c0-.274-.06-.547-.087-.82.028.273.063.546.086.82zm9.05-44.578.05-.118zm4.129-8 .308-.536zm-41.692 48.367c-.953-.407-1.941-.801-2.902-1.207.942.406 1.95.8 2.902 1.207zm8.051 3.636-.21-.097zM392.941 64 169.676 190.516zM17.363 180.46c1.13-.062 2.258 0 3.371.188a17.37 17.37 0 0 0-3.37-.187zm111.246 95.93L26.031 259.286l102.559 17.09a105.945 105.945 0 0 0 69.086-12.016l62.676-35.046-62.711 35.074a105.489 105.489 0 0 1-69.032 12.004zm36.625 75.829c-.492.047-.96.117-1.464.152.503-.062.972-.152 1.464-.152zm26.485-7.942a26.353 26.353 0 0 0 3.847-3.25 23.656 23.656 0 0 1-3.84 3.25zm-18.54 6.848a91.038 91.038 0 0 0 2.65-.547c-.876.188-1.74.379-2.634.547zm8.829-2.328c.793-.274 1.613-.512 2.383-.82-.707.308-1.528.546-2.32.82zm16.508-11.356c16.71-22.828 7.777-72.023 54.941-81.441 37.242-7.45 24.34 22.715 45.902 27.04 4.938 60.23 5.989 108.577.79 135.581 2.386 1.695 4.687 3.316 6.902 4.863-30.95-21.722-81.86-58.816-108.473-86.043zm105.761-53.918c.82 0 1.625.063 2.524 0-.89.055-1.711.028-2.524 0zm14.743 148.25zm13.312 9.067-4.414-2.957zm-13.242-9.012c3.426 2.348 6.312 4.324 8.582 5.86-2.25-1.536-5.121-3.504-8.574-5.86zm-10.055-148.46zm156.348-124.47a45.254 45.254 0 0 1-41.184-19.062 45.346 45.346 0 0 0 41.184 19.062 54.475 54.475 0 0 0 8.394-.718c-2.777.46-5.582.699-8.394.718zm0 0" opacity="1" data-original="#5496ce" class=""></path><path fill="#00c6f7" d="m20.734 180.648 101.844 17.973a70.63 70.63 0 0 0 47.098-8.105l223.32-126.543c-37.633-21.653-90.75-37.489-165.96-37.489C46.628 26.484 18 122.543 14.68 180.746a17.324 17.324 0 0 1 6.054-.098zm0 0" opacity="1" data-original="#5496ce" class=""></path><path fill="#2fa8cf" d="M96.617 73.023a8.828 8.828 0 0 0 10.903 6.09l42.468-12.023a8.833 8.833 0 0 0 6.094-10.902l-4.785-16.977a8.733 8.733 0 0 0-3.805-4.977 214.831 214.831 0 0 0-55.8 19.844 8.266 8.266 0 0 0 .14 1.961zM269.34 51.684a8.831 8.831 0 0 0 7.617 9.89l43.766 5.684a8.85 8.85 0 0 0 6.527-1.758 8.853 8.853 0 0 0 3.371-5.86l2.266-17.507a8.59 8.59 0 0 0-.192-2.824 356.43 356.43 0 0 0-58.148-10.504 8.828 8.828 0 0 0-2.942 5.367zm0 0" opacity="1" data-original="#336a93" class=""></path><path fill="#cbf2ff" d="M412.414 88.277c35.313 35.309 61.793 35.309 97.106 26.48 0 0 .175-35.308-97.106-114.757 0 0-35.309 52.965 0 88.277zm0 0" opacity="1" data-original="#95c2d5" class=""></path><path fill="#1b738f" d="M412.414 88.277a51.562 51.562 0 0 1-14.512-27.086L169.676 190.516a70.63 70.63 0 0 1-47.098 8.105L20.734 180.648A17.658 17.658 0 0 0 5.59 185.16a17.64 17.64 0 0 0-5.465 14.828l4.746 42.77a17.657 17.657 0 0 0 14.649 15.465l109.062 18.18a105.948 105.948 0 0 0 69.094-12.016l262.258-146.54a99.259 99.259 0 0 1-47.52-29.57zm0 0" opacity="1" data-original="#445c71" class=""></path><path fill="#668892" d="m459.926 117.805-36.918 20.629a45.79 45.79 0 0 0 42.375 20.464 41.7 41.7 0 0 0 44.137-44.14 104.275 104.275 0 0 1-49.594 3.047zM412.414 0s-28.793 7.316-53.848 47.73A237.834 237.834 0 0 1 392.996 64l4.961-2.809v.125C391.863 30.957 412.414 0 412.414 0zm0 0" opacity="1" data-original="#668892" class=""></path><path fill="#2fa8cf" d="M197.64 264.387a105.489 105.489 0 0 1-69.03 12.004L25.413 259.18a231.052 231.052 0 0 1 15.094 51.285 27.007 27.007 0 0 0 17.57 22.16c32.309 11.031 103.547 31.691 133.649 11.652 26.48-17.656 9.18-77.773 61.793-88.277 44.136-8.828 17.656 35.309 61.792 26.484l16.95-4.238a35.187 35.187 0 0 0 23.48-20.215 97.98 97.98 0 0 1 65.5-54.996l45.727-13.066a17.636 17.636 0 0 0 10.691-8.59 17.667 17.667 0 0 0 1.317-13.656c-.973-3-2.032-6.266-3.446-9.797a53.624 53.624 0 0 1-10.148.972 45.703 45.703 0 0 1-42.375-20.48zm0 0" opacity="1" data-original="#336a93" class=""></path><path fill="#394f63" d="M332.969 247.172a8.829 8.829 0 1 1-17.658-.002 8.829 8.829 0 0 1 17.658.002zM165.242 317.793a8.826 8.826 0 0 1-8.828 8.828c-4.875 0-8.824-3.953-8.824-8.828s3.95-8.828 8.824-8.828a8.826 8.826 0 0 1 8.828 8.828zm0 0" opacity="1" data-original="#394f63" class=""></path><path fill="#668892" d="M198.578 337.441a27.586 27.586 0 0 1-6.851 6.836 68.933 68.933 0 0 1-38.747 8.36c32.23 32.925 112.043 101.347 153.68 115.226l26.485-26.484S238.504 378.28 198.578 337.44zm0 0" opacity="1" data-original="#668892" class=""></path><path fill="#1b738f" d="M336.27 276.71c-1.301.603-2.641 1.114-4.008 1.536l-16.95 4.238a40.323 40.323 0 0 1-15.89.555c4.933 60.23 5.984 108.578.785 135.582 19.191 13.594 32.938 22.758 32.938 22.758 16.277-38.727 8.906-121.961 3.125-164.668zm0 0" opacity="1" data-original="#445c71" class=""></path><path fill="#2fa8cf" d="m329.11 445.414-22.45 22.45a226.109 226.109 0 0 1 7.434 29.675A17.52 17.52 0 0 0 331.449 512h2.426a17.58 17.58 0 0 0 12.906-5.516 17.58 17.58 0 0 0 4.75-13.207 70.273 70.273 0 0 0-22.422-47.863zm0 0" opacity="1" data-original="#336a93" class=""></path></g></svg>