<svg xmlns="http://www.w3.org/2000/svg" version="1.1" xmlns:xlink="http://www.w3.org/1999/xlink" width="512" height="512" x="0" y="0" viewBox="0 0 512 512" style="enable-background:new 0 0 512 512" xml:space="preserve" class=""><g transform="matrix(1,0,0,1,0,0)"><path fill="#2fa8cf" d="M357.984 512H154.016c-6.897 0-12.488-5.591-12.488-12.488v-20.813h228.943v20.813c.001 6.897-5.59 12.488-12.487 12.488z" opacity="1" data-original="#0996a4" class=""></path><path fill="#00c6f7" d="M510.269 428.634 463.64 285.125l-72.355-117.026L256 214.79l-135.285-46.691L48.36 285.125 1.731 428.634c-1.776 5.466 1.215 11.337 6.681 13.113l59.383 19.295c5.466 1.776 11.337-1.215 13.113-6.681l39.807-122.512v130.2c0 9.196 7.455 16.65 16.65 16.65h237.268c9.196 0 16.65-7.455 16.65-16.65v-130.2l39.807 122.512c1.776 5.466 7.647 8.457 13.113 6.681l59.383-19.295c5.467-1.776 8.459-7.646 6.683-13.113z" opacity="1" data-original="#75cdd5" class=""></path><path fill="#2fa8cf" d="M510.269 428.634 463.64 285.125 393.456 171.61l89.908 276.708 20.224-6.571c5.465-1.776 8.457-7.647 6.681-13.113z" opacity="1" data-original="#2abcc8" class=""></path><path fill="#2fa8cf" d="m504.624 478.614-39.589 12.863c-5.466 1.776-11.337-1.215-13.113-6.681l-7.718-23.753 59.383-19.295 7.718 23.753c1.776 5.466-1.215 11.337-6.681 13.113zM7.376 478.614l39.589 12.863c5.466 1.776 11.337-1.215 13.113-6.681l7.718-23.753-59.383-19.296L.695 465.5c-1.776 5.467 1.215 11.338 6.681 13.114z" opacity="1" data-original="#0996a4" class=""></path><path fill="#ffe074" d="M367.09 62.439H144.91a33.301 33.301 0 0 0-31.671 23.01L48.36 285.125l33.481-14.34a41.625 41.625 0 0 0 23.2-25.401l17.159-52.809c2.047-6.299 9.54-8.904 15.053-5.234L256 266.406l118.747-79.065c5.513-3.67 13.006-1.065 15.053 5.234l17.159 52.809a41.625 41.625 0 0 0 23.2 25.401l33.481 14.34-64.879-199.676a33.301 33.301 0 0 0-31.671-23.01z" opacity="1" data-original="#ffe177" class=""></path><path fill="#ffd15b" d="m365.46 85.449 59.308 182.532c1.717 1.055 3.513 2 5.39 2.804l33.481 14.34-64.878-199.676a33.3 33.3 0 0 0-31.671-23.01h-33.301a33.301 33.301 0 0 1 31.671 23.01z" opacity="1" data-original="#ffd15b" class=""></path><path fill="#ffd15b" d="M239.35 134.229h33.301v344.47H239.35z" opacity="1" data-original="#fdb441" class=""></path><path fill="#2fa8cf" d="M120.715 331.849v-51.453c0-4.143-3.358-7.5-7.5-7.5s-7.5 3.357-7.5 7.5v97.618zM391.285 331.849v-51.453c0-4.143 3.358-7.5 7.5-7.5s7.5 3.357 7.5 7.5v97.618z" opacity="1" data-original="#2abcc8" class=""></path><path fill="#2fa8cf" d="M160.787 257.272a7.5 7.5 0 0 1-6.926-10.371l57.518-138.904a7.5 7.5 0 1 1 13.858 5.738L167.719 252.64a7.503 7.503 0 0 1-6.932 4.632zM351.213 257.272a7.502 7.502 0 0 1-6.932-4.633l-57.518-138.904a7.5 7.5 0 0 1 4.06-9.799c3.824-1.587 8.214.233 9.798 4.061l57.518 138.904a7.5 7.5 0 0 1-6.926 10.371z" opacity="1" data-original="#3c87d0" class=""></path><path fill="#00c6f7" d="m274.691 138.241 79.341-75.801V41.626C354.032 18.637 335.395 0 312.406 0H199.594c-22.989 0-41.626 18.637-41.626 41.626v20.813l79.341 75.801c10.458 9.992 26.924 9.992 37.382.001z" opacity="1" data-original="#75cdd5" class=""></path><path fill="#2fa8cf" d="M312.406 0h-31.22c22.989 0 41.626 18.637 41.626 41.626v50.64l31.22-29.827V41.626C354.032 18.637 335.395 0 312.406 0z" opacity="1" data-original="#2abcc8" class=""></path><path fill="#2fa8cf" d="M191.269 33.355V20.813C191.269 9.318 200.588 0 212.082 0h87.835c11.495 0 20.813 9.318 20.813 20.813v12.542c0 6.822-2.79 13.346-7.723 18.059L267.502 94.89c-6.436 6.148-16.569 6.148-23.004 0l-45.506-43.476a24.979 24.979 0 0 1-7.723-18.059z" opacity="1" data-original="#0996a4" class=""></path></g></svg>