<svg xmlns="http://www.w3.org/2000/svg" enable-background="new 0 0 24 24" viewBox="0 0 24 24" width="256" height="256"><path d="m12 0c-6.617 0-12 5.383-12 12s5.383 12 12 12 12-5.383 12-12-5.383-12-12-12zm5.58 18.373c-.662.464-1.446.629-2.242.629-1.012 0-2.042-.266-2.866-.523-1.62-.505-3.117-1.413-4.327-2.624-1.627-1.626-2.737-3.801-3.045-5.965-.141-.991-.221-2.262.417-3.3.599-.981 1.689-1.59 2.841-1.59.201 0 .394.021.58.053.742.129 1.3.724 1.402 1.482l.402 3.004c.099.741-.267 1.448-.914 1.779.309.608.712 1.161 1.202 1.651s1.043.893 1.651 1.202c.328-.638 1.05-1.016 1.779-.914l3.005.402c.758.102 1.353.66 1.479 1.389.035.199.056.392.056.593 0 1.088-.531 2.109-1.42 2.732z" fill="currentColor" class="color000 svgShape"></path></svg>