<?xml version="1.0" encoding="UTF-8" standalone="no"?>
<!DOCTYPE svg PUBLIC "-//W3C//DTD SVG 1.1//EN" "http://www.w3.org/Graphics/SVG/1.1/DTD/svg11.dtd">
<svg width="100%" height="100%" viewBox="0 0 512 512" version="1.1" xmlns="http://www.w3.org/2000/svg" xmlns:xlink="http://www.w3.org/1999/xlink" xml:space="preserve" xmlns:serif="http://www.serif.com/" style="fill-rule:evenodd;clip-rule:evenodd;stroke-linejoin:round;stroke-miterlimit:2;">
    <g transform="matrix(1.14283,0,0,1.14283,-36.5679,-36.3646)">
        <path d="M127.388,63.709C119.074,63.949 111.173,67.422 105.375,73.385L41.394,137.336C35.381,143.335 31.998,151.489 31.998,159.983C31.998,168.477 35.381,176.631 41.394,182.63L105.375,246.642C135.552,276.999 180.998,231.554 150.67,201.347L141.266,191.974L320.026,191.974C373.757,191.974 415.998,234.245 415.998,288.006C415.998,341.767 373.727,384.008 320.026,384.008L256.015,384.008C211.567,384.008 211.567,447.958 256.015,447.958L320.026,447.958C408.106,447.958 480.009,376.086 480.009,288.006C480.009,199.926 408.106,128.023 320.026,128.023L141.266,128.023L150.64,118.619C171.564,98.27 156.566,62.832 127.357,63.709L127.388,63.709Z" style="fill-rule:nonzero;"/>
    </g>
</svg>
