<?xml version="1.0" encoding="UTF-8" standalone="no"?>
<!DOCTYPE svg PUBLIC "-//W3C//DTD SVG 1.1//EN" "http://www.w3.org/Graphics/SVG/1.1/DTD/svg11.dtd">
<svg width="100%" height="100%" viewBox="0 0 512 512" version="1.1" xmlns="http://www.w3.org/2000/svg" xmlns:xlink="http://www.w3.org/1999/xlink" xml:space="preserve" xmlns:serif="http://www.serif.com/" style="fill-rule:evenodd;clip-rule:evenodd;stroke-linejoin:round;stroke-miterlimit:2;">
    <g transform="matrix(1.16667,0,0,1.16667,-41.6,-42.6667)">
        <g>
            <g>
                <path d="M256,475.429C228.571,475.429 206.629,455.314 202.971,431.543C146.286,413.257 100.571,367.543 82.286,310.857C56.686,305.371 36.571,283.429 36.571,256C36.571,228.571 56.686,206.629 80.457,202.971C98.743,146.286 144.457,100.571 201.143,82.286C206.629,56.686 228.571,36.571 256,36.571C283.429,36.571 305.371,56.686 309.029,80.457C365.714,98.743 411.429,144.457 429.714,201.143C455.314,206.629 473.6,228.571 473.6,254.171C473.6,279.771 453.486,303.543 429.714,307.2C411.429,363.886 365.714,409.6 309.029,427.886C305.371,455.314 283.429,475.429 256,475.429ZM256,402.286C245.029,402.286 237.714,409.6 237.714,420.571C237.714,431.543 245.029,438.857 256,438.857C266.971,438.857 274.286,431.543 274.286,420.571C274.286,409.6 266.971,402.286 256,402.286ZM256,365.714C276.114,365.714 294.4,376.686 303.543,394.971C345.6,380.343 378.514,347.429 393.143,305.371C376.686,294.4 365.714,276.114 365.714,256C365.714,235.886 376.686,217.6 394.971,208.457C380.343,166.4 347.429,133.486 305.371,118.857C294.4,135.314 276.114,146.286 256,146.286C235.886,146.286 217.6,135.314 208.457,117.029C166.4,131.657 133.486,164.571 118.857,206.629C135.314,217.6 146.286,235.886 146.286,256C146.286,276.114 135.314,294.4 117.029,303.543C131.657,345.6 164.571,378.514 206.629,393.143C217.6,376.686 235.886,365.714 256,365.714ZM420.571,237.714C409.6,237.714 402.286,245.029 402.286,256C402.286,266.971 409.6,274.286 420.571,274.286C431.543,274.286 438.857,266.971 438.857,256C438.857,245.029 431.543,237.714 420.571,237.714ZM91.429,237.714C80.457,237.714 73.143,245.029 73.143,256C73.143,266.971 80.457,274.286 91.429,274.286C102.4,274.286 109.714,266.971 109.714,256C109.714,245.029 102.4,237.714 91.429,237.714ZM256,73.143C245.029,73.143 237.714,80.457 237.714,91.429C237.714,102.4 245.029,109.714 256,109.714C266.971,109.714 274.286,102.4 274.286,91.429C274.286,80.457 266.971,73.143 256,73.143Z" style="fill-rule:nonzero;"/>
            </g>
        </g>
    </g>
</svg>
