<?xml version="1.0" encoding="UTF-8" standalone="no"?>
<!DOCTYPE svg PUBLIC "-//W3C//DTD SVG 1.1//EN" "http://www.w3.org/Graphics/SVG/1.1/DTD/svg11.dtd">
<svg width="100%" height="100%" viewBox="0 0 512 512" version="1.1" xmlns="http://www.w3.org/2000/svg" xmlns:xlink="http://www.w3.org/1999/xlink" xml:space="preserve" xmlns:serif="http://www.serif.com/" style="fill-rule:evenodd;clip-rule:evenodd;stroke-linejoin:round;stroke-miterlimit:2;">
    <g transform="matrix(1.25542,0,0,1.25542,-44.2016,-59.4064)">
        <g>
            <path d="M118.868,202.689C118.976,202.69 119.084,202.691 119.192,202.691C130.1,202.691 139.076,193.716 139.076,182.808C139.076,171.9 130.1,162.924 119.192,162.924C119.084,162.924 118.976,162.925 118.868,162.927C107.961,162.927 98.985,171.903 98.985,182.81C98.985,193.718 107.961,202.694 118.868,202.694L118.868,202.689ZM64.75,263.807C75.657,263.807 84.633,254.831 84.633,243.923C84.633,233.015 75.657,224.04 64.75,224.04C53.842,224.04 44.866,233.015 44.866,243.923C44.866,254.831 53.842,263.807 64.75,263.807Z" style="fill-rule:nonzero;"/>
            <path d="M408.602,52.409C386.251,40.831 358.332,49.694 346.751,72.044L295.841,170.338C295.572,170.857 295.335,171.393 295.134,171.942C270.199,171.087 245.496,182.103 228.838,201.601C209.202,224.573 185.054,249.645 164.421,262.445C134.999,280.697 110.676,287.274 95.57,289.607C87.095,290.902 79.789,296.311 76.077,304.038C72.424,311.745 72.699,321.837 79.793,329.649C95.206,346.635 125.255,374.451 180.372,409.51C218.545,433.791 252.77,447.214 271.191,453.437C285.311,458.203 300.396,452.751 308.493,440.621C318.733,425.282 336.722,396.357 352.166,361.161C363.589,335.128 373.427,308.287 382.849,281.5C390.793,258.898 387.22,235.061 375.143,216.217L428.196,114.35C431.604,107.805 433.383,100.534 433.383,93.156C433.383,76.036 423.803,60.284 408.602,52.409ZM355.133,195.22L403.852,101.672C405.339,98.956 406.119,95.909 406.119,92.813C406.119,82.695 397.794,74.37 387.676,74.37C380.658,74.37 374.223,78.377 371.126,84.675L322.755,178.039C324.376,178.725 325.98,179.469 327.574,180.277L345.246,189.239C348.73,191.002 352.024,193.003 355.127,195.215L355.133,195.22ZM356.954,272.395C355.001,277.958 352.942,283.743 350.799,289.634L239.426,231.181C243.015,227.185 246.446,223.243 249.708,219.432C266.282,200.028 293.497,193.774 315.17,204.763L332.842,213.726C354.615,224.763 364.913,249.777 356.964,272.395L356.954,272.395ZM178.889,285.77C192.433,277.367 206.563,265.089 219.822,251.893L220.002,251.988L341.14,315.556C336.7,327.187 331.998,338.716 327.036,350.134C312.452,383.367 295.382,410.835 285.675,425.377C284.292,427.451 282.043,428.127 279.974,427.436C268.608,423.559 257.44,419.125 246.51,414.15C252.912,407.394 262.202,396.362 271.101,381.192C274.949,374.641 272.727,366.323 266.14,362.612C259.552,358.901 251.091,361.213 247.243,367.764C240.086,379.957 231.35,391.96 220.635,401.324C211.949,396.638 203.433,391.643 195.104,386.349C188.333,382.047 181.628,377.641 174.993,373.132C178.709,370.617 182.274,367.887 185.671,364.956C191.44,360.01 192.016,351.448 186.949,345.848C181.881,340.248 173.104,339.709 167.329,344.66C158.831,351.945 152.903,354.716 150.507,355.65C128.655,339.234 114.012,325.748 104.538,315.92C122.896,312.505 148.828,304.418 178.894,285.77L178.889,285.77Z"/>
        </g>
    </g>
</svg>
