<?xml version="1.0" encoding="UTF-8" standalone="no"?>
<!DOCTYPE svg PUBLIC "-//W3C//DTD SVG 1.1//EN" "http://www.w3.org/Graphics/SVG/1.1/DTD/svg11.dtd">
<svg width="100%" height="100%" viewBox="0 0 512 512" version="1.1" xmlns="http://www.w3.org/2000/svg" xmlns:xlink="http://www.w3.org/1999/xlink" xml:space="preserve" xmlns:serif="http://www.serif.com/" style="fill-rule:evenodd;clip-rule:evenodd;stroke-linejoin:round;stroke-miterlimit:2;">
    <g transform="matrix(1.11628,0,0,1.11628,-29.7674,-29.7674)">
        <path d="M384,26.667L213.333,26.667C169.173,26.667 133.333,62.507 133.333,106.667L133.333,112L128,112C83.84,112 48,147.84 48,192L48,405.333C48,449.493 83.84,485.333 128,485.333L298.667,485.333C342.827,485.333 378.667,449.493 378.667,405.333L378.667,400L384,400C428.16,400 464,364.16 464,320L464,106.667C464,62.507 428.16,26.667 384,26.667ZM346.667,405.333C346.667,431.787 325.12,453.333 298.667,453.333L128,453.333C101.547,453.333 80,431.787 80,405.333L80,192C80,165.547 101.547,144 128,144L298.667,144C325.12,144 346.667,165.547 346.667,192L346.667,405.333ZM432,320C432,346.453 410.453,368 384,368L378.667,368L378.667,192C378.667,147.84 342.827,112 298.667,112L165.333,112L165.333,106.667C165.333,80.213 186.88,58.667 213.333,58.667L384,58.667C410.453,58.667 432,80.213 432,106.667L432,320ZM293.333,298.667C293.333,307.413 286.08,314.667 277.333,314.667L149.333,314.667C140.587,314.667 133.333,307.413 133.333,298.667C133.333,289.92 140.587,282.667 149.333,282.667L277.333,282.667C286.08,282.667 293.333,289.92 293.333,298.667ZM293.333,213.333C293.333,222.08 286.08,229.333 277.333,229.333L149.333,229.333C140.587,229.333 133.333,222.08 133.333,213.333C133.333,204.587 140.587,197.333 149.333,197.333L277.333,197.333C286.08,197.333 293.333,204.587 293.333,213.333ZM293.333,384C293.333,392.747 286.08,400 277.333,400L149.333,400C140.587,400 133.333,392.747 133.333,384C133.333,375.253 140.587,368 149.333,368L277.333,368C286.08,368 293.333,375.253 293.333,384Z" style="fill-rule:nonzero;"/>
    </g>
</svg>
