<?xml version="1.0" encoding="UTF-8" standalone="no"?>
<!DOCTYPE svg PUBLIC "-//W3C//DTD SVG 1.1//EN" "http://www.w3.org/Graphics/SVG/1.1/DTD/svg11.dtd">
<svg width="100%" height="100%" viewBox="0 0 512 512" version="1.1" xmlns="http://www.w3.org/2000/svg" xmlns:xlink="http://www.w3.org/1999/xlink" xml:space="preserve" xmlns:serif="http://www.serif.com/" style="fill-rule:evenodd;clip-rule:evenodd;stroke-linejoin:round;stroke-miterlimit:2;">
    <g transform="matrix(1.57195,0,0,1.57195,-146.386,-147.195)">
        <path d="M238.592,409.6C238.586,409.6 238.58,409.6 238.574,409.6C232.956,409.6 228.334,404.978 228.334,399.36C228.334,396.641 229.417,394.03 231.342,392.11L389.243,234.23C395.061,228.555 398.355,220.771 398.377,212.644C398.392,204.414 395.099,196.513 389.243,190.73L331.51,132.997C325.755,127.159 317.896,123.86 309.699,123.843C301.596,123.857 293.832,127.137 288.174,132.936L122.757,298.25C116.939,303.925 113.645,311.709 113.623,319.836C113.608,328.066 116.901,335.967 122.757,341.75L173.138,392.11C175.062,394.031 176.144,396.641 176.144,399.36C176.144,404.981 171.519,409.606 165.898,409.606C163.184,409.606 160.579,408.527 158.659,406.61L108.278,356.229C98.586,346.663 93.124,333.598 93.124,319.98C93.124,306.361 98.586,293.296 108.278,283.73L273.49,118.518C282.972,108.853 295.954,103.396 309.494,103.383L309.658,103.383C323.288,103.384 336.365,108.845 345.948,118.538L403.681,176.271C413.373,185.838 418.835,198.903 418.835,212.521C418.835,226.139 413.373,239.204 403.681,248.771L245.76,406.61C243.857,408.509 241.28,409.583 238.592,409.6Z" style="fill-rule:nonzero;"/>
        <path d="M378.88,409.6L165.888,409.6C160.271,409.6 155.648,404.977 155.648,399.36C155.648,393.743 160.271,389.12 165.888,389.12L378.88,389.12C384.497,389.12 389.12,393.743 389.12,399.36C389.12,404.977 384.497,409.6 378.88,409.6ZM283.238,365.158C280.529,365.158 277.927,364.082 276.009,362.168L160.297,246.456C158.454,244.548 157.422,241.996 157.422,239.342C157.422,233.725 162.045,229.102 167.662,229.102C170.316,229.102 172.868,230.134 174.776,231.977L290.488,347.689C292.401,349.608 293.476,352.209 293.476,354.918C293.476,360.535 288.855,365.157 283.238,365.158Z" style="fill-rule:nonzero;"/>
    </g>
</svg>
