<?xml version="1.0" encoding="UTF-8" standalone="no"?>
<!DOCTYPE svg PUBLIC "-//W3C//DTD SVG 1.1//EN" "http://www.w3.org/Graphics/SVG/1.1/DTD/svg11.dtd">
<svg width="100%" height="100%" viewBox="0 0 512 512" version="1.1" xmlns="http://www.w3.org/2000/svg" xmlns:xlink="http://www.w3.org/1999/xlink" xml:space="preserve" xmlns:serif="http://www.serif.com/" style="fill-rule:evenodd;clip-rule:evenodd;stroke-linejoin:round;stroke-miterlimit:2;">
    <g transform="matrix(1.05263,0,0,1.05263,-13.4737,-13.4737)">
        <path d="M298.875,450.714C298.875,466.534 294.277,477.763 285.092,486.953C274.883,494.607 263.654,499.2 251.402,499.2C238.648,499.2 227.42,494.607 217.723,486.953C207.514,477.763 202.921,466.534 202.921,450.714C202.921,438.461 207.514,426.726 217.718,417.024C226.908,407.839 238.136,403.251 251.407,403.251C264.678,403.251 276.413,407.839 285.097,417.024C294.277,426.726 298.87,437.955 298.87,450.714L298.875,450.714ZM415.242,141.926C415.242,159.795 411.668,175.616 404.014,189.394C397.379,203.177 388.193,215.424 377.984,224.102C367.775,234.307 349.911,251.151 323.881,275.139C317.245,281.774 310.103,287.898 307.036,291.983C302.444,297.595 299.382,302.193 296.832,305.761C294.789,310.354 293.258,314.952 291.215,318.013C291.215,322.606 289.178,330.26 286.623,340.47C282.03,362.926 269.778,373.135 248.346,373.135C237.117,373.135 227.927,369.562 220.273,362.926C212.106,355.272 209.044,345.062 209.044,330.26C209.044,312.397 212.618,296.576 218.23,283.817C222.822,270.034 230.482,258.806 239.667,248.602C248.852,238.392 261.105,227.164 276.925,213.381C290.708,201.134 300.913,191.949 306.529,186.332C313.165,180.716 317.757,174.085 322.35,165.919C326.943,157.752 327.967,150.098 327.967,140.908C327.967,124.063 322.35,109.266 310.098,98.033C296.325,86.804 280.499,81.188 260.593,81.188C237.117,81.188 219.761,86.804 208.532,98.033C197.304,110.285 188.119,127.636 180.465,151.117C173.829,174.592 159.027,187.351 139.633,187.351C126.874,187.351 117.176,182.758 109.01,173.573C99.82,165.407 96.758,156.728 96.758,146.524C96.758,126.106 103.393,105.692 116.152,85.274C129.935,63.841 147.794,46.996 173.829,33.213C198.835,19.436 226.908,12.8 261.105,12.8C291.727,12.8 319.8,18.417 343.788,29.645C367.775,40.873 385.638,56.694 397.885,76.088C409.626,97.014 415.242,118.451 415.242,141.932L415.242,141.926Z" style="fill-rule:nonzero;"/>
    </g>
</svg>
