<?xml version="1.0" encoding="UTF-8" standalone="no"?>
<!DOCTYPE svg PUBLIC "-//W3C//DTD SVG 1.1//EN" "http://www.w3.org/Graphics/SVG/1.1/DTD/svg11.dtd">
<svg width="100%" height="100%" viewBox="0 0 512 512" version="1.1" xmlns="http://www.w3.org/2000/svg" xmlns:xlink="http://www.w3.org/1999/xlink" xml:space="preserve" xmlns:serif="http://www.serif.com/" style="fill-rule:evenodd;clip-rule:evenodd;stroke-linejoin:round;stroke-miterlimit:2;">
    <g transform="matrix(1.14286,0,0,1.14286,-36.5714,-36.5714)">
        <path d="M160,47.083L89.749,117.333L128,117.333C136.491,117.333 144.629,113.963 150.624,107.957C156.627,101.963 160.003,93.817 160,85.333L160,47.083Z"/>
        <path d="M75.445,138.667C74.928,140.967 74.667,143.317 74.667,145.675L74.667,448C74.667,456.491 78.037,464.629 84.043,470.624C90.037,476.627 98.183,480.003 106.667,480L405.333,480C422.888,480 437.333,465.555 437.333,448L437.333,64C437.333,55.509 433.963,47.371 427.957,41.376C421.963,35.373 413.817,31.997 405.333,32L188.341,32C185.984,32.001 183.634,32.262 181.333,32.779L181.333,85.333C181.331,99.473 175.711,113.048 165.717,123.051C155.715,133.044 142.14,138.665 128,138.667L75.445,138.667ZM117.333,384L117.333,405.333C117.333,413.824 120.704,421.963 126.709,427.957C132.704,433.961 140.849,437.336 149.333,437.333L362.667,437.333C371.157,437.333 379.296,433.963 385.291,427.957C391.294,421.963 394.67,413.817 394.667,405.333L394.667,384C394.667,378.148 389.852,373.333 384,373.333C378.148,373.333 373.333,378.148 373.333,384L373.333,405.333C373.333,405.344 373.333,405.355 373.333,405.365C373.333,411.199 368.533,416 362.699,416C362.688,416 362.677,416 362.667,416L149.333,416C149.323,416 149.312,416 149.301,416C143.467,416 138.667,411.199 138.667,405.365C138.667,405.355 138.667,405.344 138.667,405.333L138.667,384C138.667,378.148 133.852,373.333 128,373.333C122.148,373.333 117.333,378.148 117.333,384ZM245.333,175.083L199.541,220.875C197.553,222.795 194.895,223.869 192.131,223.869C186.28,223.869 181.464,219.054 181.464,213.202C181.464,210.438 182.539,207.78 184.459,205.792L248.459,141.792C250.457,139.79 253.172,138.665 256,138.665C258.828,138.665 261.543,139.79 263.541,141.792L327.541,205.792C329.461,207.78 330.536,210.438 330.536,213.202C330.536,219.054 325.72,223.869 319.869,223.869C317.105,223.869 314.447,222.795 312.459,220.875L266.667,175.083L266.667,362.667C266.667,368.518 261.852,373.333 256,373.333C250.148,373.333 245.333,368.518 245.333,362.667L245.333,175.083Z"/>
    </g>
</svg>
