<?xml version="1.0" encoding="UTF-8" standalone="no"?>
<!DOCTYPE svg PUBLIC "-//W3C//DTD SVG 1.1//EN" "http://www.w3.org/Graphics/SVG/1.1/DTD/svg11.dtd">
<svg width="100%" height="100%" viewBox="0 0 512 512" version="1.1" xmlns="http://www.w3.org/2000/svg" xmlns:xlink="http://www.w3.org/1999/xlink" xml:space="preserve" xmlns:serif="http://www.serif.com/" style="fill-rule:evenodd;clip-rule:evenodd;stroke-linejoin:round;stroke-miterlimit:2;">
    <g transform="matrix(1.00021,0,0,1.00021,-1.1147e-05,-1.11134e-05)">
        <path d="M506.667,268.587L436.693,336C425.173,347.307 405.333,339.413 405.333,323.627L405.333,277.333L277.333,277.333L277.333,405.333L323.627,405.333C339.413,405.333 347.307,425.173 336,436.693L268.587,506.667C261.547,513.707 250.453,513.707 243.413,506.667L176,436.693C164.693,425.173 172.587,405.333 188.373,405.333L234.667,405.333L234.667,277.333L106.667,277.333L106.667,323.627C106.667,339.413 86.827,347.307 75.307,336L5.333,268.587C1.957,265.271 0.053,260.732 0.053,256C0.053,251.268 1.957,246.729 5.333,243.413L75.307,176C86.827,164.693 106.667,172.587 106.667,188.373L106.667,234.667L234.667,234.667L234.667,106.667L188.373,106.667C172.587,106.667 164.693,86.827 176,75.307L243.413,5.333C250.453,-1.707 261.547,-1.707 268.587,5.333L336,75.307C347.307,86.827 339.413,106.667 323.627,106.667L277.333,106.667L277.333,234.667L405.333,234.667L405.333,188.373C405.333,172.587 425.173,164.693 436.693,176L506.667,243.413C513.707,250.453 513.707,261.547 506.667,268.587Z" style="fill-rule:nonzero;"/>
    </g>
</svg>
