<?xml version="1.0" encoding="UTF-8" standalone="no"?>
<!DOCTYPE svg PUBLIC "-//W3C//DTD SVG 1.1//EN" "http://www.w3.org/Graphics/SVG/1.1/DTD/svg11.dtd">
<svg width="100%" height="100%" viewBox="0 0 512 512" version="1.1" xmlns="http://www.w3.org/2000/svg" xmlns:xlink="http://www.w3.org/1999/xlink" xml:space="preserve" xmlns:serif="http://www.serif.com/" style="fill-rule:evenodd;clip-rule:evenodd;stroke-linejoin:round;stroke-miterlimit:2;">
    <g transform="matrix(1.06568,0,0,1.06568,-16.8103,-41.6973)">
        <path d="M253.872,238.096C297.241,238.096 332.928,202.409 332.928,159.04C332.928,115.671 297.241,79.984 253.872,79.984C210.503,79.984 174.816,115.671 174.816,159.04C174.816,159.045 174.816,159.051 174.816,159.056C174.869,202.402 210.526,238.052 253.872,238.096ZM253.872,112C279.686,112 300.928,133.242 300.928,159.056C300.928,184.87 279.686,206.112 253.872,206.112C228.058,206.112 206.816,184.87 206.816,159.056C206.851,133.255 228.071,112.035 253.872,112ZM104.528,284.56C137.882,284.56 165.328,257.114 165.328,223.76C165.328,190.406 137.882,162.96 104.528,162.96C71.174,162.96 43.728,190.406 43.728,223.76C43.728,257.114 71.174,284.56 104.528,284.56ZM104.528,194.96C120.327,194.96 133.328,207.961 133.328,223.76C133.328,239.559 120.327,252.56 104.528,252.56C88.729,252.56 75.728,239.559 75.728,223.76C75.728,207.961 88.729,194.96 104.528,194.96ZM403.2,284.56C436.554,284.56 464,257.114 464,223.76C464,190.406 436.554,162.96 403.2,162.96C369.846,162.96 342.4,190.406 342.4,223.76C342.4,257.114 369.846,284.56 403.2,284.56ZM403.2,194.96C418.999,194.96 432,207.961 432,223.76C432,239.559 418.999,252.56 403.2,252.56C387.401,252.56 374.4,239.559 374.4,223.76C374.4,207.961 387.401,194.96 403.2,194.96ZM405.328,316.656C391.319,315.972 377.519,320.34 365.232,327.104C341.524,289.57 300.388,266.451 256,265.712C211.612,266.451 170.476,289.57 146.768,327.104C134.481,320.34 120.681,315.972 106.672,316.656C26.668,320.56 13.788,410.424 16,462.489C16,471.266 23.223,478.489 32,478.489C40.777,478.489 48,471.266 48,462.489C45.832,427.987 54.467,352.561 106.672,348.656C115.489,347.997 124.195,351.031 131.904,355.36C124.364,374.363 120.503,441.116 120.528,461.561C120.528,470.338 127.751,477.561 136.528,477.561C145.305,477.561 152.528,470.338 152.528,461.561C152.528,396.841 164.539,297.712 256,297.712C347.461,297.712 359.472,396.841 359.472,461.561C359.472,470.338 366.695,477.561 375.472,477.561C384.249,477.561 391.472,470.338 391.472,461.561C391.497,441.116 387.636,374.363 380.096,355.36C387.805,351.031 396.486,348.656 405.328,348.656C464.001,348.656 466.168,427.987 464,462.489C464,471.266 471.223,478.489 480,478.489C488.777,478.489 496,471.266 496,462.489C498.212,410.424 484.728,320.53 405.328,316.656Z" style="fill-rule:nonzero;"/>
    </g>
</svg>
