<?xml version="1.0" encoding="UTF-8" standalone="no"?>
<!DOCTYPE svg PUBLIC "-//W3C//DTD SVG 1.1//EN" "http://www.w3.org/Graphics/SVG/1.1/DTD/svg11.dtd">
<svg width="100%" height="100%" viewBox="0 0 512 512" version="1.1" xmlns="http://www.w3.org/2000/svg" xmlns:xlink="http://www.w3.org/1999/xlink" xml:space="preserve" xmlns:serif="http://www.serif.com/" style="fill-rule:evenodd;clip-rule:evenodd;stroke-linejoin:round;stroke-miterlimit:2;">
    <g transform="matrix(1.06629,0,0,1.06629,-16.9691,-16.9606)">
        <path d="M253.872,238.096C297.241,238.096 332.928,202.409 332.928,159.04C332.928,115.671 297.241,79.984 253.872,79.984C210.503,79.984 174.816,115.671 174.816,159.04C174.816,159.045 174.816,159.051 174.816,159.056C174.869,202.402 210.526,238.052 253.872,238.096ZM253.872,112C279.686,112 300.928,133.242 300.928,159.056C300.928,184.87 279.686,206.112 253.872,206.112C228.058,206.112 206.816,184.87 206.816,159.056C206.851,133.255 228.071,112.035 253.872,112ZM104.528,284.56C137.882,284.56 165.328,257.114 165.328,223.76C165.328,190.406 137.882,162.96 104.528,162.96C71.174,162.96 43.728,190.406 43.728,223.76C43.728,257.114 71.174,284.56 104.528,284.56ZM104.528,194.96C120.327,194.96 133.328,207.961 133.328,223.76C133.328,239.559 120.327,252.56 104.528,252.56C88.729,252.56 75.728,239.559 75.728,223.76C75.728,207.961 88.729,194.96 104.528,194.96ZM403.2,284.56C436.554,284.56 464,257.114 464,223.76C464,190.406 436.554,162.96 403.2,162.96C369.846,162.96 342.4,190.406 342.4,223.76C342.4,257.114 369.846,284.56 403.2,284.56ZM403.2,194.96C418.999,194.96 432,207.961 432,223.76C432,239.559 418.999,252.56 403.2,252.56C387.401,252.56 374.4,239.559 374.4,223.76C374.4,207.961 387.401,194.96 403.2,194.96ZM405.328,316.656C391.302,316.749 377.519,320.34 365.232,327.104C341.524,289.57 300.388,266.451 256,265.712C211.612,266.451 170.476,289.57 146.768,327.104C134.481,320.34 120.698,316.749 106.672,316.656C54.622,319.196 13.788,363.935 16,416C16,424.777 23.223,432 32,432C40.777,432 48,424.777 48,416C45.832,381.499 72.199,351.234 106.672,348.656C115.513,348.724 124.195,351.031 131.904,355.36C124.364,374.363 120.503,394.627 120.528,415.072C120.528,423.849 127.751,431.072 136.528,431.072C145.305,431.072 152.528,423.849 152.528,415.072C152.528,350.352 198.928,297.712 256,297.712C313.072,297.712 359.472,350.352 359.472,415.072C359.472,423.849 366.695,431.072 375.472,431.072C384.249,431.072 391.472,423.849 391.472,415.072C391.497,394.627 387.636,374.363 380.096,355.36C387.805,351.031 396.487,348.724 405.328,348.656C439.801,351.234 466.168,381.499 464,416C464,424.777 471.223,432 480,432C488.777,432 496,424.777 496,416C498.212,363.935 457.378,319.196 405.328,316.656Z" style="fill-rule:nonzero;"/>
    </g>
</svg>
