<?xml version="1.0" encoding="UTF-8" standalone="no"?>
<!DOCTYPE svg PUBLIC "-//W3C//DTD SVG 1.1//EN" "http://www.w3.org/Graphics/SVG/1.1/DTD/svg11.dtd">
<svg width="100%" height="100%" viewBox="0 0 512 512" version="1.1" xmlns="http://www.w3.org/2000/svg" xmlns:xlink="http://www.w3.org/1999/xlink" xml:space="preserve" xmlns:serif="http://www.serif.com/" style="fill-rule:evenodd;clip-rule:evenodd;stroke-linejoin:round;stroke-miterlimit:2;">
    <g transform="matrix(1.16667,0,0,1.16667,-41.6576,-42.6667)">
        <g>
            <g>
                <path d="M420.571,475.429C396.8,475.429 376.686,460.8 369.371,438.857L142.629,438.857C135.314,460.8 115.2,475.429 91.429,475.429C60.343,475.429 36.571,451.657 36.571,420.571C36.571,396.8 51.2,376.686 73.143,369.371L73.143,142.629C51.2,135.314 36.571,115.2 36.571,91.429C36.571,60.343 60.343,36.571 91.429,36.571C115.2,36.571 135.314,51.2 142.629,73.143L367.543,73.143C374.857,51.2 394.971,36.571 418.743,36.571C449.829,36.571 473.6,60.343 473.6,91.429C473.6,115.2 458.971,135.314 437.029,142.629L437.029,367.543C458.971,374.857 473.6,394.971 473.6,418.743C475.429,451.657 451.657,475.429 420.571,475.429ZM420.571,402.286C409.6,402.286 402.286,409.6 402.286,420.571C402.286,431.543 409.6,438.857 420.571,438.857C431.543,438.857 438.857,431.543 438.857,420.571C438.857,409.6 431.543,402.286 420.571,402.286ZM91.429,402.286C80.457,402.286 73.143,409.6 73.143,420.571C73.143,431.543 80.457,438.857 91.429,438.857C102.4,438.857 109.714,431.543 109.714,420.571C109.714,409.6 102.4,402.286 91.429,402.286ZM142.629,402.286L367.543,402.286C373.029,385.829 385.829,374.857 400.457,369.371L400.457,142.629C384,137.143 373.029,124.343 367.543,109.714L142.629,109.714C137.143,126.171 126.171,137.143 109.714,142.629L109.714,367.543C126.171,374.857 137.143,385.829 142.629,402.286ZM420.571,73.143C409.6,73.143 402.286,80.457 402.286,91.429C402.286,102.4 409.6,109.714 420.571,109.714C431.543,109.714 438.857,102.4 438.857,91.429C438.857,80.457 431.543,73.143 420.571,73.143ZM91.429,73.143C80.457,73.143 73.143,80.457 73.143,91.429C73.143,102.4 80.457,109.714 91.429,109.714C102.4,109.714 109.714,102.4 109.714,91.429C109.714,80.457 102.4,73.143 91.429,73.143Z" style="fill-rule:nonzero;"/>
            </g>
        </g>
    </g>
</svg>
