<svg xmlns="http://www.w3.org/2000/svg" version="1.1" xmlns:xlink="http://www.w3.org/1999/xlink" width="512" height="512" x="0" y="0" viewBox="0 0 392.62 392.62" style="enable-background:new 0 0 512 512" xml:space="preserve" class=""><g><path d="M144.866 320.897h23.505v25h-23.505z" fill="#000000" opacity="1" data-original="#000000" class=""></path><path d="M309.795 0H82.825C37.667 0 .929 36.738.929 81.896v228.828c0 45.158 36.738 81.896 81.896 81.896h226.969c45.157 0 81.896-36.738 81.896-81.896V81.896C391.691 36.738 354.952 0 309.795 0zM266.49 30c14.354 0 26.03 9.542 26.03 21.27v123.06c0 11.729-11.677 21.271-26.03 21.271H126.131c-14.354 0-26.031-9.542-26.031-21.271V51.27c0-11.728 11.678-21.27 26.031-21.27H266.49zM141.146 362.62c-6.259 0-11.352-5.092-11.352-11.351v-30.066c0-6.259 5.093-11.351 11.352-11.351h113.443c6.259 0 11.351 5.092 11.351 11.351v30.066c0 6.259-5.092 11.351-11.351 11.351H141.146zm220.545-51.896c0 28.616-23.28 51.896-51.896 51.896h-15.452a41.224 41.224 0 0 0 1.597-11.351v-30.066c0-22.801-18.55-41.351-41.351-41.351H141.146c-22.802 0-41.352 18.55-41.352 41.351v30.066c0 3.937.565 7.742 1.597 11.351H82.825c-28.616 0-51.896-23.28-51.896-51.896V81.896c0-25.91 19.087-47.444 43.938-51.285-3.056 6.324-4.767 13.31-4.767 20.659v123.06c0 28.271 25.136 51.271 56.031 51.271H266.49c30.896 0 56.03-23 56.03-51.271V51.27c0-7.348-1.711-14.334-4.767-20.659 24.851 3.841 43.938 25.375 43.938 51.285v228.828z" fill="#000000" opacity="1" data-original="#000000" class=""></path></g></svg>