<svg xmlns="http://www.w3.org/2000/svg" version="1.1" xmlns:xlink="http://www.w3.org/1999/xlink" width="512" height="512" x="0" y="0" viewBox="0 0 512 512" style="enable-background:new 0 0 512 512" xml:space="preserve" class=""><g><path d="M15 114.235c8.284 0 15-6.716 15-15V30h69.235c8.284 0 15-6.716 15-15s-6.716-15-15-15H15C6.716 0 0 6.716 0 15v84.235c0 8.285 6.716 15 15 15zM497 0h-84.235c-8.284 0-15 6.716-15 15s6.716 15 15 15H482v69.235c0 8.284 6.716 15 15 15s15-6.716 15-15V15c0-8.284-6.716-15-15-15zM497 397.765c-8.284 0-15 6.716-15 15V482h-69.235c-8.284 0-15 6.716-15 15s6.716 15 15 15H497c8.284 0 15-6.716 15-15v-84.235c0-8.285-6.716-15-15-15zM99.235 482H30v-69.235c0-8.284-6.716-15-15-15s-15 6.716-15 15V497c0 8.284 6.716 15 15 15h84.235c8.284 0 15-6.716 15-15s-6.715-15-15-15zM419.66 191.38V96.65c0-4.7-3.81-8.51-8.52-8.51H100.86c-4.71 0-8.52 3.81-8.52 8.51v94.73c0 4.71 3.81 8.52 8.52 8.52h45.24c4.7 0 8.51-3.81 8.51-8.52v-32.45a8.52 8.52 0 0 1 8.52-8.52h53.21c4.71 0 8.52 3.81 8.52 8.52v234.14c0 4.71-3.81 8.52-8.52 8.52h-23.27c-4.71 0-8.52 3.81-8.52 8.52v45.24c0 4.7 3.81 8.51 8.52 8.51h125.86c4.71 0 8.52-3.81 8.52-8.51v-45.24c0-4.71-3.81-8.52-8.52-8.52h-23.27c-4.71 0-8.52-3.81-8.52-8.52V158.93c0-4.71 3.81-8.52 8.52-8.52h53.21c4.7 0 8.52 3.81 8.52 8.52v32.45c0 4.71 3.81 8.52 8.51 8.52h45.24c4.71 0 8.52-3.81 8.52-8.52z" fill="#000000" opacity="1" data-original="#000000"></path></g></svg>