<svg xmlns="http://www.w3.org/2000/svg" viewBox="0 0 692.04 416.45"><defs><style>.cls-1{fill:#fff;}</style></defs><g id="Layer_2" data-name="Layer 2"><g id="LOGO_INV"><polygon class="cls-1" points="549.4 30.37 606.01 74.92 624.56 0 549.4 30.37"/><path class="cls-1" d="M474.08,28.67l11.16,27.62L0,252.34,66.31,416.45l485.24-196L563,248.7l35.42-143-124.32-77ZM20.39,261,468.08,80.16l54.54,135L74.93,396Z"/><polygon class="cls-1" points="630.05 125.25 622.93 191.56 692.04 163.64 630.05 125.25"/><polygon class="cls-1" points="639.96 33.06 633.16 96.3 680.58 133.62 639.96 33.06"/><polygon class="cls-1" points="123.59 245.34 141.36 307.49 141.1 307.6 106.34 252.31 96.3 256.37 109.51 318.71 109.25 318.82 79.17 263.28 65.27 268.9 115.95 355.05 128.31 350.05 114.19 286.57 114.45 286.47 148.52 341.89 160.88 336.89 137.49 239.72 123.59 245.34"/><path class="cls-1" d="M205.06,212.42l16.57,99.93L234.76,307l-4.1-21.25,17.9-7.23,11.82,18.13,13.13-5.3L216,208Zm16.2,24.15,19.86,30.62L228,272.49l-7-35.81Z"/><polygon class="cls-1" points="332.45 160.95 318.55 166.57 322.71 207.27 322.45 207.37 297.18 175.2 283.28 180.82 322.68 226.45 338.33 265.2 351.46 259.89 335.81 221.14 332.45 160.95"/><polygon class="cls-1" points="469.19 197.95 443.96 208.14 441.37 129.08 437.16 118.65 399.44 133.89 404.43 146.25 427.86 136.78 430.5 214.48 435.18 226.07 474.19 210.31 469.19 197.95"/></g></g></svg>